<svg width="0" height="0" class="hidden">
  <symbol xmlns="http://www.w3.org/2000/svg" fill="currentcolor" viewBox="0 -960 960 960" id="date-range">
    <path d="M291.5-411.5Q280-423 280-440t11.5-28.5T320-480t28.5 11.5T360-440t-11.5 28.5T320-400t-28.5-11.5m160 0Q440-423 440-440t11.5-28.5T480-480t28.5 11.5T520-440t-11.5 28.5T480-400t-28.5-11.5m160 0Q600-423 600-440t11.5-28.5T640-480t28.5 11.5T680-440t-11.5 28.5T640-400t-28.5-11.5M200-80q-33 0-56.5-23.5T120-160v-560q0-33 23.5-56.5T200-800h40v-80h80v80h320v-80h80v80h40q33 0 56.5 23.5T840-720v560q0 33-23.5 56.5T760-80zm0-80h560v-400H200zm0-480h560v-80H200zm0 0v-80z"></path>
  </symbol>
  <symbol xmlns="http://www.w3.org/2000/svg" fill="currentcolor" viewBox="0 -960 960 960" id="favorite">
    <path d="m480-120-58-52q-101-91-167-157T150-447.5 95.5-544 80-634q0-94 63-157t157-63q52 0 99 22t81 62q34-40 81-62t99-22q94 0 157 63t63 157q0 46-15.5 90T810-447.5 705-329 538-172zm0-108q96-86 158-147.5t98-107 50-81 14-70.5q0-60-40-100t-100-40q-47 0-87 26.5T518-680h-76q-15-41-55-67.5T300-774q-60 0-100 40t-40 100q0 35 14 70.5t50 81 98 107T480-228m0-273"></path>
  </symbol>
  <symbol xmlns="http://www.w3.org/2000/svg" fill="currentcolor" viewBox="0 -960 960 960" id="hourglass">
    <path d="M320-160h320v-120q0-66-47-113t-113-47-113 47-47 113zm273-407q47-47 47-113v-120H320v120q0 66 47 113t113 47 113-47M160-80v-80h80v-120q0-61 28.5-114.5T348-480q-51-32-79.5-85.5T240-680v-120h-80v-80h640v80h-80v120q0 61-28.5 114.5T612-480q51 32 79.5 85.5T720-280v120h80v80zm320-720"></path>
  </symbol>
  <symbol xmlns="http://www.w3.org/2000/svg" fill="currentcolor" viewBox="0 -960 960 960" id="kid-star">
    <path d="m305-704 112-145q12-16 28.5-23.5T480-880t34.5 7.5T543-849l112 145 170 57q26 8 41 29.5t15 47.5q0 12-3.5 24T866-523L756-367l4 164q1 35-23 59t-56 24q-2 0-22-3l-179-50-179 50q-5 2-11 2.5t-11 .5q-32 0-56-24t-23-59l4-165L95-523q-8-11-11.5-23T80-570q0-25 14.5-46.5T135-647zm49 69-194 64 124 179-4 191 200-55 200 56-4-192 124-177-194-66-126-165zm126 135"></path>
  </symbol>
  <symbol xmlns="http://www.w3.org/2000/svg" fill="currentcolor" viewBox="0 -960 960 960" id="movie">
    <path d="m160-800 80 160h120l-80-160h80l80 160h120l-80-160h80l80 160h120l-80-160h120q33 0 56.5 23.5T880-720v480q0 33-23.5 56.5T800-160H160q-33 0-56.5-23.5T80-240v-480q0-33 23.5-56.5T160-800m0 240v320h640v-320zm0 0v320z"></path>
  </symbol>
  <symbol xmlns="http://www.w3.org/2000/svg" fill="currentcolor" viewBox="0 -960 960 960" id="search">
    <path d="M784-120 532-372q-30 24-69 38t-83 14q-109 0-184.5-75.5T120-580t75.5-184.5T380-840t184.5 75.5T640-580q0 44-14 83t-38 69l252 252zM380-400q75 0 127.5-52.5T560-580t-52.5-127.5T380-760t-127.5 52.5T200-580t52.5 127.5T380-400"></path>
  </symbol>
</svg>