<svg width="0" height="0" class="hidden">
  <symbol xmlns="http://www.w3.org/2000/svg" fill="currentcolor" viewBox="0 -960 960 960" id="cancel">
    <path d="m336-280 144-144 144 144 56-56-144-144 144-144-56-56-144 144-144-144-56 56 144 144-144 144zM480-80q-83 0-156-31.5T197-197t-85.5-127T80-480t31.5-156T197-763t127-85.5T480-880t156 31.5T763-763t85.5 127T880-480t-31.5 156T763-197t-127 85.5T480-80m0-80q134 0 227-93t93-227-93-227-227-93-227 93-93 227 93 227 227 93m0-320"/>
  </symbol>
  <symbol xmlns="http://www.w3.org/2000/svg" fill="currentcolor" viewBox="0 -960 960 960" id="date-range">
    <path d="M291.5-411.5Q280-423 280-440t11.5-28.5T320-480t28.5 11.5T360-440t-11.5 28.5T320-400t-28.5-11.5m160 0Q440-423 440-440t11.5-28.5T480-480t28.5 11.5T520-440t-11.5 28.5T480-400t-28.5-11.5m160 0Q600-423 600-440t11.5-28.5T640-480t28.5 11.5T680-440t-11.5 28.5T640-400t-28.5-11.5M200-80q-33 0-56.5-23.5T120-160v-560q0-33 23.5-56.5T200-800h40v-80h80v80h320v-80h80v80h40q33 0 56.5 23.5T840-720v560q0 33-23.5 56.5T760-80zm0-80h560v-400H200zm0-480h560v-80H200zm0 0v-80z"/>
  </symbol>
  <symbol xmlns="http://www.w3.org/2000/svg" fill="currentcolor" viewBox="0 0 24 24" id="favorite">
    <path d="M19.196 6.987c-1.626-2.096-4.89-1.744-6.033.65-.466.978-1.86.978-2.327 0-1.142-2.394-4.406-2.746-6.032-.65l-.31.399a4.453 4.453 0 0 0 .47 5.976l6.953 6.53q.045.045.083.079l.083-.078 6.953-6.531a4.453 4.453 0 0 0 .47-5.976zM12 6.63c1.77-3.072 6.155-3.43 8.381-.561l.31.398a5.953 5.953 0 0 1-.628 7.989l-6.97 6.548a5 5 0 0 1-.326.287 1.25 1.25 0 0 1-.526.25 1.3 1.3 0 0 1-.482 0 1.25 1.25 0 0 1-.526-.25c-.108-.082-.222-.19-.326-.287l-6.97-6.548a5.953 5.953 0 0 1-.627-7.989l.309-.398c2.226-2.87 6.611-2.51 8.381.56" fill="currentcolor"/>
  </symbol>
  <symbol xmlns="http://www.w3.org/2000/svg" fill="currentcolor" viewBox="0 0 24 24" id="favorite-filled">
    <path d="M20.381 6.068c-2.226-2.87-6.611-2.51-8.381.56-1.77-3.07-6.155-3.43-8.381-.56l-.31.398a5.953 5.953 0 0 0 .628 7.989l6.97 6.548c.104.098.218.204.326.287.123.095.296.205.526.25q.242.048.482 0c.23-.045.403-.155.526-.25.108-.082.222-.19.326-.287l6.97-6.548a5.953 5.953 0 0 0 .627-7.989z" fill="currentcolor"/>
  </symbol>
  <symbol xmlns="http://www.w3.org/2000/svg" fill="currentcolor" viewBox="0 -960 960 960" id="hourglass">
    <path d="M320-160h320v-120q0-66-47-113t-113-47-113 47-47 113zm273-407q47-47 47-113v-120H320v120q0 66 47 113t113 47 113-47M160-80v-80h80v-120q0-61 28.5-114.5T348-480q-51-32-79.5-85.5T240-680v-120h-80v-80h640v80h-80v120q0 61-28.5 114.5T612-480q51 32 79.5 85.5T720-280v120h80v80zm320-720"/>
  </symbol>
  <symbol xmlns="http://www.w3.org/2000/svg" fill="currentcolor" viewBox="0 -960 960 960" id="kid-star">
    <path d="m305-704 112-145q12-16 28.5-23.5T480-880t34.5 7.5T543-849l112 145 170 57q26 8 41 29.5t15 47.5q0 12-3.5 24T866-523L756-367l4 164q1 35-23 59t-56 24q-2 0-22-3l-179-50-179 50q-5 2-11 2.5t-11 .5q-32 0-56-24t-23-59l4-165L95-523q-8-11-11.5-23T80-570q0-25 14.5-46.5T135-647zm49 69-194 64 124 179-4 191 200-55 200 56-4-192 124-177-194-66-126-165zm126 135"/>
  </symbol>
  <symbol xmlns="http://www.w3.org/2000/svg" fill="currentcolor" viewBox="0 -960 960 960" id="movie">
    <path d="m160-800 80 160h120l-80-160h80l80 160h120l-80-160h80l80 160h120l-80-160h120q33 0 56.5 23.5T880-720v480q0 33-23.5 56.5T800-160H160q-33 0-56.5-23.5T80-240v-480q0-33 23.5-56.5T160-800m0 240v320h640v-320zm0 0v320z"/>
  </symbol>
  <symbol xmlns="http://www.w3.org/2000/svg" fill="currentcolor" viewBox="0 -960 960 960" id="search">
    <path d="M784-120 532-372q-30 24-69 38t-83 14q-109 0-184.5-75.5T120-580t75.5-184.5T380-840t184.5 75.5T640-580q0 44-14 83t-38 69l252 252zM380-400q75 0 127.5-52.5T560-580t-52.5-127.5T380-760t-127.5 52.5T200-580t52.5 127.5T380-400"/>
  </symbol>
  <symbol xmlns="http://www.w3.org/2000/svg" fill="currentcolor" viewBox="0 -960 960 960" id="search-off">
    <path d="M138.5-138.5Q80-197 80-280t58.5-141.5T280-480t141.5 58.5T480-280t-58.5 141.5T280-80t-141.5-58.5M824-120 568-376q-12-13-25.5-26.5T516-428q38-24 61-64t23-88q0-75-52.5-127.5T420-760t-127.5 52.5T240-580q0 6 .5 11.5T242-557q-18 2-39.5 8T164-535q-2-11-3-22t-1-23q0-109 75.5-184.5T420-840t184.5 75.5T680-580q0 43-13.5 81.5T629-428l251 252zm-615-61 71-71 70 71 29-28-71-71 71-71-28-28-71 71-71-71-28 28 71 71-71 71z"/>
  </symbol>
  <symbol xmlns="http://www.w3.org/2000/svg" fill="currentcolor" viewBox="0 0 16 16" id="github">
    <path d="M8 0C3.58 0 0 3.58 0 8c0 3.54 2.29 6.53 5.47 7.59.4.07.55-.17.55-.38 0-.19-.01-.82-.01-1.49-2.01.37-2.53-.49-2.69-.94-.09-.23-.48-.94-.82-1.13-.28-.15-.68-.52-.01-.53.63-.01 1.08.58 1.23.82.72 1.21 1.87.87 2.33.66.07-.52.28-.87.51-1.07-1.78-.2-3.64-.89-3.64-3.95 0-.87.31-1.59.82-2.15-.08-.2-.36-1.02.08-2.12 0 0 .67-.21 2.2.82.64-.18 1.32-.27 2-.27s1.36.09 2 .27c1.53-1.04 2.2-.82 2.2-.82.44 1.1.16 1.92.08 2.12.51.56.82 1.27.82 2.15 0 3.07-1.87 3.75-3.65 3.95.29.25.54.73.54 1.48 0 1.07-.01 1.93-.01 2.2 0 .21.15.46.55.38A8.01 8.01 0 0 0 16 8c0-4.42-3.58-8-8-8"/>
  </symbol>
</svg>
